# Blender v2.78 (sub 0) OBJ File: ''
# www.blender.org
v 0.500000 0.500000 -0.500000
v 0.500000 -0.500000 -0.500000
v -0.500000 -0.500000 -0.500000
v -0.500000 0.500000 -0.500000
v 0.500000 0.500000 0.500000
v 0.500000 -0.500000 0.500000
v -0.500000 -0.500000 0.500000
v -0.500000 0.500000 0.500000
vt -1.0000 0.0000
vt -0.0000 1.0000
vt 0.0000 0.0000
vt -1.0000 1.0000
vt -1.0000 -1.0000
vt 0.0000 -1.0000
vt -0.0000 -0.0000
vt -1.0000 1.0000
vt -1.0000 0.0000
vt -0.0000 1.0000
vt 0.0000 0.0000
vt 0.0000 0.0000
vt 1.0000 1.0000
vt 0.0000 1.0000
vt -1.0000 0.0000
vt 0.0000 -1.0000
vt 0.0000 0.0000
vt -1.0000 0.0000
vt -1.0000 0.0000
vt -1.0000 1.0000
vt 1.0000 0.0000
vt -1.0000 -1.0000
vn -1.0000 0.0000 0.0000
vn 0.0000 0.0000 1.0000
vn 0.0000 0.0000 -1.0000
vn 0.0000 1.0000 0.0000
vn 1.0000 -0.0000 0.0000
vn -0.0000 -1.0000 -0.0000
s off
f 2/1/1 5/2/1 1/3/1
f 2/1/1 6/4/1 5/2/1
f 1/3/2 3/5/2 2/6/2
f 6/7/3 8/8/3 5/2/3
f 3/9/4 6/10/4 2/11/4
f 3/12/5 8/13/5 7/14/5
f 8/15/6 1/16/6 5/17/6
f 1/3/2 4/18/2 3/5/2
f 6/7/3 7/19/3 8/8/3
f 3/9/4 7/20/4 6/10/4
f 3/12/5 4/21/5 8/13/5
f 8/15/6 4/22/6 1/16/6
